{
	"asset":{
		"version":"2.0",
		"generator":"Houdini GLTF 2.0 Exporter"
	},
	"accessors":[
		{
			"bufferView":0,
			"componentType":5125,
			"count":216000,
			"type":"SCALAR",
			"min":[0
			],
			"max":[38653
			]
		},
		{
			"bufferView":1,
			"componentType":5126,
			"count":38654,
			"type":"VEC3",
			"min":[-0.700691044,-0.709423125,-0.703729868
			],
			"max":[0.684184909,0.701248944,0.691998601
			]
		},
		{
			"bufferView":2,
			"componentType":5126,
			"count":38654,
			"type":"SCALAR",
			"min":[0.0131588792
			],
			"max":[0.174810857
			]
		},
		{
			"bufferView":3,
			"componentType":5126,
			"count":38654,
			"type":"VEC2",
			"min":[0,0.00557810068
			],
			"max":[1.19257545,0.99658066
			]
		},
		{
			"bufferView":4,
			"componentType":5126,
			"count":38654,
			"type":"VEC3",
			"min":[-0.999800801,-0.999979496,-0.999872386
			],
			"max":[0.999979973,0.999952972,0.999979377
			]
		},
		{
			"bufferView":5,
			"componentType":5126,
			"count":38654,
			"type":"SCALAR",
			"min":[0.143354639
			],
			"max":[0.143354639
			]
		}
	],
	"buffers":[
		{
			"uri":"outputGltf_data.bin",
			"byteLength":2410160,
			"name":"main_buffer"
		}
	],
	"bufferViews":[
		{
			"buffer":0,
			"byteLength":864000,
			"target":34963
		},
		{
			"buffer":0,
			"byteOffset":864000,
			"byteLength":463848,
			"target":34962
		},
		{
			"buffer":0,
			"byteOffset":1327848,
			"byteLength":154616,
			"target":34962
		},
		{
			"buffer":0,
			"byteOffset":1482464,
			"byteLength":309232,
			"target":34962
		},
		{
			"buffer":0,
			"byteOffset":1791696,
			"byteLength":463848,
			"target":34962
		},
		{
			"buffer":0,
			"byteOffset":2255544,
			"byteLength":154616,
			"target":34962
		}
	],
	"cameras":[
		{
			"name":"cam1",
			"type":"perspective",
			"perspective":{
				"aspectRatio":1,
				"yfov":0.785398185,
				"zfar":5343.22314,
				"znear":0.0137643516
			}
		}
	],
	"extensionsUsed":["KHR_lights_punctual"
	],
	"extensionsRequired":["KHR_lights_punctual"
	],
	"extensions":{
		"KHR_lights_punctual":{
			"lights":[
				{
					"name":"pointlight1",
					"intensity":0.330000013,
					"type":"point"
				},
				{
					"name":"pointlight2",
					"intensity":0.330000013,
					"type":"point"
				}
			]
		}
	},
	"nodes":[
		{
			"name":"GEO",
			"mesh":0
		},
		{
			"matrix":[0,0,1,0,0,-1,0,0,1,0,0,0,3,0,0,1
			],
			"name":"cam1",
			"camera":0
		},
		{
			"name":"envlight1"
		},
		{
			"matrix":[0.893274665,0,0.449511319,0,-0.142581075,-0.948361576,0.283338934,0,0.426299244,-0.317191303,-0.847147346,0,1.04352355,-0.707479298,-1.92121112,1
			],
			"extensions":{
				"KHR_lights_punctual":{
					"light":0
				}
			},
			"name":"pointlight1"
		},
		{
			"matrix":[-0.815709174,7.40752668e-08,0.578462243,0,-0.086801447,-0.988677561,-0.122401521,0,0.571912646,-0.150055408,0.806473374,0,1.26201022,-0.347113699,1.66161954,1
			],
			"extensions":{
				"KHR_lights_punctual":{
					"light":1
				}
			},
			"name":"pointlight2"
		}
	],
	"meshes":[
		{
			"primitives":[
				{
					"attributes":{
						"_maxdist":5,
						"NORMAL":4,
						"TEXCOORD_0":3,
						"_dist":2,
						"POSITION":1
					},
					"indices":0
				}
			],
			"name":"material1"
		}
	],
	"scenes":[
		{
			"nodes":[0
			]
		}
	],
	"scene":0
}
